<svg xmlns="http://www.w3.org/2000/svg" xmlns:svg="http://www.w3.org/2000/svg" id="SVGRoot" width="32" height="32" version="1.1" viewBox="0 0 32 32"><metadata id="metadata1507"/><g id="layer1"><path id="path25095" style="color:#000;fill:#fff;stroke-linecap:round;-inkscape-stroke:none" d="M 5.3339844 4.3339844 C 3.3206833 4.3339844 1.6660156 5.9866989 1.6660156 8 L 1.6660156 24 C 1.6660156 26.013301 3.3206829 27.666016 5.3339844 27.666016 L 26.666016 27.666016 C 28.679318 27.666016 30.333984 26.013301 30.333984 24 L 30.333984 8 C 30.333984 5.986699 28.679317 4.3339844 26.666016 4.3339844 L 5.3339844 4.3339844 z M 5.3339844 6.3339844 L 26.666016 6.3339844 C 27.599379 6.3339844 28.333984 7.0666373 28.333984 8 L 28.333984 11.732422 L 3.6660156 11.732422 L 3.6660156 8 C 3.6660156 7.0666375 4.4006218 6.3339844 5.3339844 6.3339844 z M 24 7.4003906 A 1.6666666 1.6666666 0 0 0 22.333984 9.0664062 A 1.6666666 1.6666666 0 0 0 24 10.732422 A 1.6666666 1.6666666 0 0 0 25.666016 9.0664062 A 1.6666666 1.6666666 0 0 0 24 7.4003906 z M 3.6660156 13.333984 L 28.333984 13.333984 L 28.333984 18.666016 L 3.6660156 18.666016 L 3.6660156 13.333984 z M 24 14.333984 A 1.6666666 1.6666666 0 0 0 22.333984 16 A 1.6666666 1.6666666 0 0 0 24 17.666016 A 1.6666666 1.6666666 0 0 0 25.666016 16 A 1.6666666 1.6666666 0 0 0 24 14.333984 z M 3.6660156 20.267578 L 28.333984 20.267578 L 28.333984 24 C 28.333984 24.933362 27.599379 25.666016 26.666016 25.666016 L 5.3339844 25.666016 C 4.4006222 25.666016 3.6660156 24.933362 3.6660156 24 L 3.6660156 20.267578 z M 24 21.267578 A 1.6666666 1.6666666 0 0 0 22.333984 22.933594 A 1.6666666 1.6666666 0 0 0 24 24.599609 A 1.6666666 1.6666666 0 0 0 25.666016 22.933594 A 1.6666666 1.6666666 0 0 0 24 21.267578 z"/></g></svg>