<svg xmlns="http://www.w3.org/2000/svg" xmlns:svg="http://www.w3.org/2000/svg" id="SVGRoot" width="1080" height="1080" version="1.1" viewBox="0 0 1080 1080"><g id="layer1"><rect style="color:#000;overflow:visible;fill:#e6e6e6;fill-opacity:1;stroke:none;stroke-width:2.00001;stroke-linejoin:round;stop-color:#000" id="rect845" width="1080" height="1080" x="0" y="0"/><path id="circle176" style="color:#000;fill:#b3b3b3;fill-opacity:1;stroke-width:.0518518;-inkscape-stroke:none" d="m 540,347.14286 c -106.28351,0 -192.85714,86.57363 -192.85714,192.85714 0,106.28351 86.57363,192.85714 192.85714,192.85714 106.28351,0 192.85714,-86.57363 192.85714,-192.85714 0,-106.28351 -86.57363,-192.85714 -192.85714,-192.85714 z m 0,38.57143 c 85.43799,0 154.28571,68.84772 154.28571,154.28571 0,85.43799 -68.84772,154.28571 -154.28571,154.28571 -85.43799,0 -154.28571,-68.84772 -154.28571,-154.28571 0,-85.43799 68.84772,-154.28571 154.28571,-154.28571 z m 0,77.14285 c -42.37635,0 -77.14286,34.76651 -77.14286,77.14286 0,42.37635 34.76651,77.14286 77.14286,77.14286 42.37635,0 77.14286,-34.76651 77.14286,-77.14286 0,-42.37635 -34.76651,-77.14286 -77.14286,-77.14286 z m 0,38.57143 c 21.53082,0 38.57143,17.04061 38.57143,38.57143 0,21.53082 -17.04061,38.57143 -38.57143,38.57143 -21.53082,0 -38.57143,-17.04061 -38.57143,-38.57143 0,-21.53082 17.04061,-38.57143 38.57143,-38.57143 z"/></g></svg>