<svg xmlns="http://www.w3.org/2000/svg" xmlns:svg="http://www.w3.org/2000/svg" id="SVGRoot" width="24" height="24" version="1.1" viewBox="0 0 24 24"><g id="layer1"><path id="path11819" style="stroke-width:.999998;stroke:none;fill:#000" d="M 14.5 2.5 A 1 1 0 0 0 13.792969 2.7929688 A 1 1 0 0 0 13.792969 4.2070312 L 15.085938 5.5 L 5 5.5 C 3.3549921 5.5 2 6.8549921 2 8.5 L 2 13.5 A 1 1 0 0 0 3 14.5 A 1 1 0 0 0 4 13.5 L 4 8.5 C 4 7.9358701 4.4358701 7.5 5 7.5 L 15.085938 7.5 L 13.792969 8.7929688 A 1 1 0 0 0 13.792969 10.207031 A 1 1 0 0 0 15.207031 10.207031 L 18.914062 6.5 L 15.207031 2.7929688 A 1 1 0 0 0 14.5 2.5 z M 19.5 11 C 17.01473 11 15 13.01465 15 15.5 C 15 17.98535 17.01473 20 19.5 20 C 21.9849 20 24 17.98535 24 15.5 C 24 13.01465 21.9849 11 19.5 11 z M 19 12.824219 L 20.5 12.824219 L 20.5 18.5 L 19 18.5 L 19 14.175781 L 17.5 15.175781 L 17.5 13.824219 L 19 12.824219 z M 9.4980469 13.5 A 1.000005 1.000005 0 0 0 8.7910156 13.792969 L 5.0859375 17.5 L 8.7910156 21.205078 A 1.000005 1.000005 0 0 0 10.205078 21.205078 A 1.000005 1.000005 0 0 0 10.205078 19.791016 L 8.9140625 18.5 L 12.498047 18.5 A 1.000005 1.000005 0 0 0 13.498047 17.5 A 1.000005 1.000005 0 0 0 12.498047 16.5 L 8.9140625 16.5 L 10.205078 15.207031 A 1.000005 1.000005 0 0 0 10.205078 13.792969 A 1.000005 1.000005 0 0 0 9.4980469 13.5 z"/></g></svg>