<svg xmlns="http://www.w3.org/2000/svg" xmlns:svg="http://www.w3.org/2000/svg" id="SVGRoot" width="256" height="256" version="1.1" viewBox="0 0 256 256"><metadata id="metadata1507"/><g id="layer1"><path id="path25095-3" style="color:#000;fill:#fff;stroke-linecap:round;-inkscape-stroke:none" d="M 64 60 C 53.000132 60 44 69.000132 44 80 L 44 176 C 44 186.99987 53.000132 196 64 196 L 192 196 C 202.99987 196 212 186.99987 212 176 L 212 80 C 212 69.000132 202.99987 60 192 60 L 64 60 z M 64 68 L 192 68 C 198.68011 68 204 73.319886 204 80 L 204 102.66602 L 52 102.66602 L 52 80 C 52 73.319886 57.319886 68 64 68 z M 176 75.333984 A 10 10 0 0 0 166 85.333984 A 10 10 0 0 0 176 95.333984 A 10 10 0 0 0 186 85.333984 A 10 10 0 0 0 176 75.333984 z M 52 110.66602 L 204 110.66602 L 204 145.33398 L 52 145.33398 L 52 110.66602 z M 176 118 A 10 10 0 0 0 166 128 A 10 10 0 0 0 176 138 A 10 10 0 0 0 186 128 A 10 10 0 0 0 176 118 z M 52 153.33398 L 204 153.33398 L 204 176 C 204 182.68011 198.68011 188 192 188 L 64 188 C 57.319886 188 52 182.68011 52 176 L 52 153.33398 z M 176 160.66602 A 10 10 0 0 0 166 170.66602 A 10 10 0 0 0 176 180.66602 A 10 10 0 0 0 186 170.66602 A 10 10 0 0 0 176 160.66602 z"/></g></svg>