<svg xmlns="http://www.w3.org/2000/svg" xmlns:svg="http://www.w3.org/2000/svg" id="SVGRoot" width="36" height="36" version="1.1" viewBox="0 0 36 36"><g id="layer1"><path id="path1449" style="color:#000;fill:#000;fill-rule:evenodd;stroke-linecap:round;-inkscape-stroke:none" d="m 20.5,8.5 c -0.265201,4.01e-5 -0.519526,0.1054233 -0.707031,0.2929688 -0.390423,0.390507 -0.390423,1.0235552 0,1.4140622 L 21.085938,11.5 H 11 c -1.6450079,0 -3,1.354992 -3,3 v 5 c 0,0.552285 0.4477153,1 1,1 0.5522847,0 1,-0.447715 1,-1 v -5 c 0,-0.56413 0.43587,-1 1,-1 h 10.085938 l -1.292969,1.292969 c -0.390423,0.390507 -0.390423,1.023555 0,1.414062 0.390507,0.390423 1.023555,0.390423 1.414062,0 L 24.914062,12.5 21.207031,8.7929688 C 21.019526,8.6054233 20.765201,8.5000401 20.5,8.5 Z m 6.5,7 c -0.552285,0 -1,0.447715 -1,1 v 5 c 0,0.56413 -0.43587,1 -1,1 H 14.914062 l 1.292969,-1.292969 c 0.390423,-0.390507 0.390423,-1.023555 0,-1.414062 -0.390507,-0.390423 -1.023555,-0.390423 -1.414062,0 L 11.085938,23.5 l 3.707031,3.707031 c 0.390507,0.390423 1.023555,0.390423 1.414062,0 0.390423,-0.390507 0.390423,-1.023555 0,-1.414062 L 14.914062,24.5 H 25 c 1.645008,0 3,-1.354992 3,-3 v -5 c 0,-0.552285 -0.447715,-1 -1,-1 z"/></g></svg>