<svg xmlns="http://www.w3.org/2000/svg" xmlns:svg="http://www.w3.org/2000/svg" id="SVGRoot" width="36" height="36" version="1.1" viewBox="0 0 36 36"><g id="layer1"><path id="path1449" style="color:#000;fill:#000;fill-rule:evenodd;stroke-linecap:round;-inkscape-stroke:none" d="M 20.5 8.5 A 1 1 0 0 0 19.792969 8.7929688 A 1 1 0 0 0 19.792969 10.207031 L 21.085938 11.5 L 11 11.5 C 9.3549921 11.5 8 12.854992 8 14.5 L 8 19.5 A 1 1 0 0 0 9 20.5 A 1 1 0 0 0 10 19.5 L 10 14.5 C 10 13.93587 10.43587 13.5 11 13.5 L 21.085938 13.5 L 19.792969 14.792969 A 1 1 0 0 0 19.792969 16.207031 A 1 1 0 0 0 21.207031 16.207031 L 24.914062 12.5 L 21.207031 8.7929688 A 1 1 0 0 0 20.5 8.5 z M 27 15.5 A 1 1 0 0 0 26 16.5 L 26 21.5 C 26 22.06413 25.56413 22.5 25 22.5 L 14.914062 22.5 L 16.207031 21.207031 A 1 1 0 0 0 16.207031 19.792969 A 1 1 0 0 0 14.792969 19.792969 L 11.085938 23.5 L 14.792969 27.207031 A 1 1 0 0 0 16.207031 27.207031 A 1 1 0 0 0 16.207031 25.792969 L 14.914062 24.5 L 25 24.5 C 26.645008 24.5 28 23.145008 28 21.5 L 28 16.5 A 1 1 0 0 0 27 15.5 z M 18 32 A 2 2 0 0 0 16 34 A 2 2 0 0 0 18 36 A 2 2 0 0 0 20 34 A 2 2 0 0 0 18 32 z"/></g></svg>