<svg xmlns="http://www.w3.org/2000/svg" xmlns:svg="http://www.w3.org/2000/svg" id="SVGRoot" width="24" height="24" version="1.1" viewBox="0 0 24 24"><g id="layer1"><path id="path11991" style="color:#000;fill:#000;fill-rule:evenodd;stroke-linecap:round;-inkscape-stroke:none" d="M 14.5 2.5 A 1 1 0 0 0 13.792969 2.7929688 A 1 1 0 0 0 13.792969 4.2070312 L 15.085938 5.5 L 5 5.5 C 3.3549921 5.5 2 6.8549921 2 8.5 L 2 13.5 A 1 1 0 0 0 3 14.5 A 1 1 0 0 0 4 13.5 L 4 8.5 C 4 7.9358701 4.4358701 7.5 5 7.5 L 15.085938 7.5 L 13.792969 8.7929688 A 1 1 0 0 0 13.792969 10.207031 A 1 1 0 0 0 15.207031 10.207031 L 18.914062 6.5 L 15.207031 2.7929688 A 1 1 0 0 0 14.5 2.5 z M 21 9.5 A 1 1 0 0 0 20 10.5 L 20 15.5 C 20 16.06413 19.56413 16.5 19 16.5 L 8.9140625 16.5 L 10.207031 15.207031 A 1 1 0 0 0 10.207031 13.792969 A 1 1 0 0 0 9.5 13.5 A 1 1 0 0 0 8.7929688 13.792969 L 5.0859375 17.5 L 8.7929688 21.207031 A 1 1 0 0 0 10.207031 21.207031 A 1 1 0 0 0 10.207031 19.792969 L 8.9140625 18.5 L 19 18.5 C 20.645008 18.5 22 17.145008 22 15.5 L 22 10.5 A 1 1 0 0 0 21 9.5 z"/></g></svg>