<svg xmlns="http://www.w3.org/2000/svg" xmlns:svg="http://www.w3.org/2000/svg" id="SVGRoot" width="36" height="36" version="1.1" viewBox="0 0 36 36"><g id="layer1"><path id="path15452" style="color:#000;fill:#000;stroke-linecap:round;-inkscape-stroke:none" d="m 24,8.5 a 1,1 0 0 0 -0.707031,0.2929688 1,1 0 0 0 0,1.4140622 L 24.585938,11.5 h -1.472657 c -1.651701,0 -3.199989,0.818151 -4.130859,2.183594 L 17.25,16.224609 15.517578,13.683594 C 14.586942,12.318495 13.03917,11.5 11.386719,11.5 H 9 a 1,1 0 0 0 -1,1 1,1 0 0 0 1,1 h 2.386719 c 0.993546,0 1.919153,0.490048 2.478515,1.310547 L 16.039063,18 13.865234,21.189453 C 13.305863,22.010039 12.380265,22.5 11.386719,22.5 H 9 a 1,1 0 0 0 -1,1 1,1 0 0 0 1,1 h 2.386719 c 1.652452,0 3.200232,-0.818382 4.130859,-2.183594 L 17.25,19.775391 18.982422,22.316406 C 19.913276,23.681826 21.46153,24.5 23.113281,24.5 h 1.472657 l -1.292969,1.292969 a 1,1 0 0 0 0,1.414062 1,1 0 0 0 1.414062,0 L 28.414062,23.5 24.707031,19.792969 a 1,1 0 0 0 -1.414062,0 1,1 0 0 0 0,1.414062 L 24.585938,22.5 h -1.472657 c -0.992246,0 -1.919371,-0.490369 -2.478515,-1.310547 L 18.460938,18 20.634766,14.810547 C 21.193894,13.990392 22.120985,13.5 23.113281,13.5 h 1.472657 l -1.292969,1.292969 a 1,1 0 0 0 0,1.414062 1,1 0 0 0 1.414062,0 L 28.414062,12.5 24.707031,8.7929688 A 1,1 0 0 0 24,8.5 Z"/></g></svg>