<svg xmlns="http://www.w3.org/2000/svg" xmlns:svg="http://www.w3.org/2000/svg" id="SVGRoot" width="36" height="36" version="1.1" viewBox="0 0 36 36"><g id="layer1"><path id="rect2803" style="overflow:visible;fill:#000;stroke-width:.0999998;stroke-linecap:round;stroke-linejoin:round;stop-color:#000" d="m 9.9999981,6.0000038 h 4.0000009 c 0.554,0 1,0.446 1,1 V 29.000006 c 0,0.554 -0.446,1 -1,1 H 9.9999981 c -0.554,0 -1,-0.446 -1,-1 V 7.0000038 c 0,-0.554 0.446,-1 1,-1 z"/><path id="rect2800" style="overflow:visible;fill:#000;stroke-width:.0999998;stroke-linecap:round;stroke-linejoin:round;stop-color:#000" d="m 21.999998,6.0000038 h 4.000001 c 0.554,0 1,0.446 1,1 V 29.000006 c 0,0.554 -0.446,1 -1,1 h -4.000001 c -0.554,0 -1,-0.446 -1,-1 V 7.0000038 c 0,-0.554 0.446,-1 1,-1 z"/></g></svg>